<svg xmlns="http://www.w3.org/2000/svg" xmlns:xlink="http://www.w3.org/1999/xlink" x="0px" y="0px" viewBox="0 0 300 23" style="enable-background:new 0 0 300 23;" xml:space="preserve">
<g>
<g>

       <line style="fill:none;stroke:#000000;stroke-width:2;stroke-linecap:round;stroke-miterlimit:10;" x1="8.9" y1="11" x2="115.2" y2="11"></line>
</g>
<g>
   <path style="fill:none;stroke:#000000;stroke-width:2;stroke-linecap:round;stroke-miterlimit:10;" d="M138.2,11
       c0,2.2-1.8,4-4,4c-2.2,0-4-1.8-4-4c0-2.2,1.8-4,4-4C136.4,7,138.2,8.8,138.2,11z"></path>
   <path style="fill:none;stroke:#000000;stroke-width:2;stroke-linecap:round;stroke-miterlimit:10;" d="M123.1,11
       c0,1.3-1.1,2.4-2.4,2.4s-2.4-1.1-2.4-2.4c0-1.3,1.1-2.4,2.4-2.4S123.1,9.7,123.1,11z"></path>
   <path style="fill:none;stroke:#000000;stroke-width:2;stroke-linecap:round;stroke-miterlimit:10;" d="M157.3,11
       c0,4-3.2,7.2-7.2,7.2s-7.2-3.2-7.2-7.2c0-4,3.2-7.2,7.2-7.2S157.3,7,157.3,11z"></path>
</g>
<g>

       <line style="fill:none;stroke:#000000;stroke-width:2;stroke-linecap:round;stroke-miterlimit:10;" x1="184.9" y1="11" x2="291.2" y2="11"></line>
</g>
<path style="fill:none;stroke:#000000;stroke-width:2;stroke-linecap:round;stroke-miterlimit:10;" d="M161.9,11c0-2.2,1.8-4,4-4
   s4,1.8,4,4c0,2.2-1.8,4-4,4S161.9,13.2,161.9,11z"></path>
<path style="fill:none;stroke:#000000;stroke-width:2;stroke-linecap:round;stroke-miterlimit:10;" d="M177,11
   c0-1.3,1.1-2.4,2.4-2.4c1.3,0,2.4,1.1,2.4,2.4c0,1.3-1.1,2.4-2.4,2.4C178.1,13.4,177,12.3,177,11z"></path>
<path style="fill:none;stroke:#000000;stroke-width:2;stroke-linecap:round;stroke-miterlimit:10;" d="M4,11
   c0-1.3,1.1-2.4,2.4-2.4S8.8,9.7,8.8,11c0,1.3-1.1,2.4-2.4,2.4S4,12.3,4,11z"></path>
<path style="fill:none;stroke:#000000;stroke-width:2;stroke-linecap:round;stroke-miterlimit:10;" d="M291.2,11
   c0-1.3,1.1-2.4,2.4-2.4c1.3,0,2.4,1.1,2.4,2.4c0,1.3-1.1,2.4-2.4,2.4C292.3,13.4,291.2,12.3,291.2,11z"></path>
</g>
</svg>